# xmcd
#
# Track frame offsets: 
#        150
#        27346
#        37621
#        55650
#        66737
#        84683
#        113179
#        131535
#        145844
#        158231
#        182525
#        193674
#
# Disc length: 2931 seconds
#
# Revision: 0
# Processed by: cddbd v1.5.1PL2 Copyright (c) Steve Scherf et al.
# Submitted via: ExactAudioCopy v0.95a3
#
DISCID=a20b710c
DTITLE=Davy Graham - Large as life and twice as natural
DYEAR=1969
DGENRE=Blues
TTITLE0=Both Sides Now
TTITLE1=Bad Boy Blues
TTITLE2=Tristano
TTITLE3=Babe,It Ain`t No Lie
TTITLE4=Bruton Town
TTITLE5=Sunshine Raga
TTITLE6=Freight Train Blues
TTITLE7=Jenra
TTITLE8=Electric Chair
TTITLE9=Good Morning Blues
TTITLE10=Beautiful City
TTITLE11=Blue Raga
EXTD=
EXTT0=
EXTT1=
EXTT2=
EXTT3=
EXTT4=
EXTT5=
EXTT6=
EXTT7=
EXTT8=
EXTT9=
EXTT10=
EXTT11=
PLAYORDER=
